<svg t="1614058690021" class="icon" viewBox="0 0 1365 1024" version="1.1" xmlns="http://www.w3.org/2000/svg" p-id="1262" width="200" height="200"><path d="M182.98306 908.65781c5.262221 1.024 10.723553 1.564444 16.298662 1.564444h966.76951c6.399998 0 12.657774-0.711111 18.65955-2.019555l-321.109244-321.137689-95.231974 95.260418a113.493302 113.493302 0 0 1-160.597288-0.085333l-99.185751-99.18575L182.98306 908.65781zM113.777746 816.952946l314.367913-314.367912L114.403524 188.871343A86.044421 86.044421 0 0 0 113.777746 198.997563v617.955383z m1137.777462-2.844443V199.168229l-307.484359 307.484359L1251.555208 814.136947zM200.248833 113.778031l467.797204 467.825647c10.922664 10.894219 29.04177 11.09333 40.106655 0l467.342093-467.313648A86.215087 86.215087 0 0 0 1166.051232 113.778031H200.220389zM0 170.809126A170.723508 170.723508 0 0 1 170.837286 0.000284h1023.658382A170.60973 170.60973 0 0 1 1365.332954 170.809126v682.382033A170.723508 170.723508 0 0 1 1194.495668 1024H170.837286A170.60973 170.60973 0 0 1 0 853.191159V170.809126z" p-id="1263" fill="#515151"></path></svg>