<svg t="1614058760521" class="icon" viewBox="0 0 1024 1024" version="1.1" xmlns="http://www.w3.org/2000/svg" p-id="2181" width="200" height="200"><path d="M614.22 699.934c1.746-1.084 20.9-13.07 26.503-16.444 10.36-6.265 18.914-10.963 27.467-14.818 60.115-27.347 113.122-8.011 183.236 73.909 43.37 50.718 56.2 95.714 39.454 135.77-12.469 29.937-36.503 50.598-79.27 76.137-2.77 1.627-27.407 15.963-33.731 19.878-99.57 61.44-327.8-79.21-491.942-319.548C121.374 413.877 78.787 156.973 179.682 94.63l13.312-8.433L207.45 76.8c51.02-33.009 83.667-46.2 122.398-39.635 38.672 6.626 71.56 35.238 99.389 87.341 58.669 110.23 45.718 162.515-29.757 210.04-5.42 3.494-24.696 15.12-26.503 16.264-18.492 11.445 12.83 88.125 85.655 194.741C532.36 653.372 593.98 712.343 614.159 699.934z" fill="#515151" p-id="2182"></path></svg>